<svg width="430" height="339" viewBox="0 0 430 339" fill="none" xmlns="http://www.w3.org/2000/svg">
<rect width="430" height="339" rx="16" fill="white"></rect>
<path d="M230.832 70.3729C220.527 78.5768 210.649 89.4091 204.897 101.277C193.101 125.676 199.652 148.084 204.684 162.633C211.554 182.439 225.507 192.449 242.122 199.75C265.82 210.157 295.59 210.874 322.616 203.892C332.149 201.449 346.954 196.325 350.175 191.572C353.664 186.422 354.223 176.439 346.714 172.085C339.391 167.81 338.672 171.076 316.865 175.908C301.687 179.28 285.098 179.864 265.181 171.288C252.613 165.872 244.119 157.589 241.217 146.252C232.882 113.729 250.882 101.648 254.397 99.4449L230.832 70.3729Z" fill="url(#paint0_linear_39566_19721)"></path>
<path d="M255.649 108.684C246.277 107.436 218.771 104.542 189.987 99.4449C145.439 91.5596 93.0901 80.6476 76.3682 79.4794C44.2025 77.2227 38.8238 118.906 64.519 126.021C79.0575 130.057 119.078 125.809 128.824 144.978C131.779 150.819 139.634 172.802 148.501 200.042C151.99 210.715 180.294 209.042 175.022 186.289C172.013 173.306 165.17 138.207 165.17 138.207C165.17 138.207 246.383 146.783 252.987 147.367L255.649 108.684Z" fill="url(#paint1_linear_39566_19721)"></path>
<path d="M298.412 87.2585C308.717 87.524 326.663 90.179 334.758 95.5686L379.811 104.436C380.237 79.506 366.524 66.0718 351.16 58.3459C339.498 52.4784 323.122 47.6994 298.572 48.7349C275.086 49.7437 250.376 54.8679 230.699 70.5057L254.237 99.6042C265.314 92.6216 279.267 86.7276 298.412 87.2585Z" fill="url(#paint2_linear_39566_19721)"></path>
<path d="M334.04 95.0907C334.04 95.0907 336.41 96.604 337.448 97.5333C342.348 101.994 343.972 107.357 329.087 109.799L340.857 146.119C367.644 138.951 379.466 123.207 379.812 103.932L334.04 95.0907Z" fill="url(#paint3_linear_39566_19721)"></path>
<path d="M329.513 109.746C316.306 111.923 290.717 113.33 255.436 108.658L252.773 147.341C310.075 152.279 330.232 148.907 341.282 145.96L329.513 109.746Z" fill="url(#paint4_linear_39566_19721)"></path>
<path d="M48 249.494C48 250.176 48.5388 250.701 49.1853 250.701H59.9873V279.491L67.0988 279.517V250.701H77.9008C78.5473 250.701 79.0861 250.176 79.0861 249.494V245.059C79.0861 244.377 78.5473 243.852 77.9008 243.852H49.1853C48.5388 243.852 48 244.377 48 245.059V249.494Z" fill="#FC0103"></path>
<path d="M73.3479 266.343C73.3479 273.927 79.7321 279.832 87.6248 279.832C95.5715 279.832 101.956 273.927 101.956 266.343C101.956 258.706 95.5715 252.696 87.6248 252.696C79.7052 252.696 73.3479 258.706 73.3479 266.343ZM81.2406 266.29C81.2406 262.721 83.9883 259.755 87.6248 259.755C91.2884 259.755 94.0629 262.695 94.0629 266.29C94.0629 269.886 91.3153 272.772 87.6248 272.772C83.9883 272.772 81.2406 269.859 81.2406 266.29Z" fill="#FC0103"></path>
<path d="M106.589 271.854C106.589 277.706 111.088 280.068 115.613 280.068C118.684 280.068 121.836 279.648 123.856 278.1C127.143 275.607 124.395 270.542 119.924 273.035C118.604 273.77 116.422 273.402 116.018 273.245C115.129 272.877 113.539 272.562 113.647 270.043V258.994H120.247C125.311 258.994 125.257 252.617 120.247 252.617H113.647V243.904L106.616 243.878V252.617H103.168V258.994H106.616V271.854H106.589Z" fill="#FC0103"></path>
<path d="M126.524 266.238C126.524 274.504 132.854 279.832 139.642 279.832C143.144 279.832 146.808 278.362 148.074 276.368V279.884L154.593 279.858V256.081C154.593 251.436 148.208 251.646 148.208 255.819C146.969 253.824 143.225 252.748 139.723 252.748C132.908 252.696 126.524 257.918 126.524 266.238ZM134.416 266.29C134.416 262.721 137.164 259.755 140.854 259.755C144.518 259.755 147.293 262.695 147.293 266.29C147.293 269.859 144.545 272.825 140.854 272.825C137.164 272.825 134.416 269.859 134.416 266.29Z" fill="#FC0103"></path>
<path d="M168.115 279.491V246.975C168.115 242.854 160.734 242.986 160.734 246.975V279.491H168.115Z" fill="#FC0103"></path>
<path d="M174.526 243.432C173.826 243.432 173.341 243.957 173.341 244.587V278.284C173.341 278.966 173.826 279.491 174.526 279.491H198.42L198.447 272.221H181.449V265.319H194.783C195.484 265.319 195.969 264.742 195.969 264.112V259.493C195.969 258.811 195.484 258.286 194.783 258.286H181.449V250.701H196.804C197.504 250.701 198.043 250.176 198.043 249.494V244.639C198.043 243.957 197.504 243.432 196.804 243.432H174.526Z" fill="#FC0103"></path>
<path d="M222.502 278.441C222.502 279.071 223.095 279.491 223.688 279.491H228.348C228.94 279.491 229.533 279.071 229.533 278.441V264.217C229.533 257.945 225.897 252.302 218.947 252.302C214.852 252.302 210.865 253.509 209.303 255.347C209.303 251.567 203.107 251.41 203.107 255.005V279.517L210.084 279.543V265.083C210.084 256.16 222.475 257.577 222.475 265.083V278.441H222.502Z" fill="#FC0103"></path>
<path d="M279.583 252.066C275.731 252.066 272.58 254.349 271.125 256.606V254.9C271.125 251.725 265.253 251.384 265.253 255.005V279.412L272.149 279.491V267.051C272.149 263.298 274.681 259.178 277.375 258.732L280.176 258.286C284.621 258.286 283.894 252.066 279.583 252.066Z" fill="#FC0103"></path>
<path d="M298.009 284.477C294.453 284.477 291.032 284.267 289.2 283.27C284.809 280.855 282.223 286.183 284.971 287.731C288.661 289.857 290.493 290.907 297.416 290.907C306.279 290.907 311.074 286.025 311.074 278.861V255.005C311.074 251.856 304.932 251.489 304.932 254.612V256.239C303.639 254.244 299.921 253.116 296.339 253.116C289.523 253.116 283.382 258.286 283.382 266.448C283.382 274.609 289.497 279.674 296.662 279.674C300.11 279.674 302.938 278.205 304.124 276.42V278.625C304.151 282.01 302.157 284.477 298.009 284.477ZM291.274 266.421C291.274 262.852 294.022 260.044 297.659 260.044C301.322 260.044 304.097 262.826 304.097 266.421C304.097 270.043 301.349 272.799 297.659 272.799C294.049 272.799 291.274 270.069 291.274 266.421Z" fill="#FC0103"></path>
<path d="M320.421 249.52C322.71 249.52 324.623 247.552 324.623 245.269C324.623 242.907 322.71 240.965 320.421 240.965C318.077 240.965 316.165 242.933 316.165 245.269C316.165 247.552 318.077 249.52 320.421 249.52ZM322.872 279.491C323.465 279.491 323.896 278.992 323.896 278.415V256.318C323.896 251.646 316.838 251.646 316.838 256.318V278.415C316.838 278.992 317.323 279.491 317.915 279.491H322.872Z" fill="#FC0103"></path>
<path d="M342.241 252.25C333.971 252.25 328.018 258.574 328.018 266.421C328.018 274.268 333.863 280.331 342.348 280.331C348.248 280.331 351.723 278.598 353.932 275.764C355.279 273.455 352.127 270.594 349.298 272.221C346.793 273.901 345.096 273.665 342.51 273.665C339.358 273.665 336.611 271.539 336.234 268.206H353.851C354.955 268.206 355.225 267.602 355.225 266.946V265.477C355.225 258.679 350.726 252.25 342.241 252.25ZM348.194 263.325H336.395C337.176 260.385 339.601 258.574 342.295 258.574C344.881 258.574 347.467 260.097 348.194 263.325Z" fill="#FC0103"></path>
<path d="M369.582 252.04C362.335 252.04 357.864 255.871 357.864 260.726C357.864 265.057 360.827 267.734 365.272 268.6L369.77 269.518C372.356 270.017 373.703 270.568 373.703 271.88C373.703 273.035 372.464 274.111 369.932 274.111C367.238 274.111 364.437 273.612 362.713 272.143C358.861 270.148 355.439 274.373 359.292 277.234C361.527 278.756 365.056 280.199 369.663 280.199C377.124 280.199 382 276.315 382 271.171C382 266.185 378.175 264.007 373.542 263.141L369.232 262.327C366.942 261.881 366.08 261.173 366.08 260.149C366.08 259.047 367.481 258.181 369.609 258.181C371.898 258.181 373.838 258.417 375.535 259.519C378.902 261.461 382.377 257.315 379.225 254.69C377.501 253.221 375.023 252.04 369.582 252.04Z" fill="#FC0103"></path>
<path d="M247.985 252.25C239.715 252.25 233.762 258.574 233.762 266.421C233.762 274.268 239.608 280.331 248.093 280.331C253.992 280.331 257.467 278.598 259.676 275.764C261.023 273.455 257.871 270.594 255.043 272.221C252.538 273.901 250.841 273.665 248.255 273.665C245.103 273.665 242.355 271.539 241.978 268.206H259.595C260.7 268.206 260.969 267.602 260.969 266.946V265.477C260.942 258.679 256.471 252.25 247.985 252.25ZM253.939 263.325H242.14C242.921 260.385 245.345 258.574 248.039 258.574C250.625 258.574 253.211 260.097 253.939 263.325Z" fill="#FC0103"></path>
<defs>
<linearGradient id="paint0_linear_39566_19721" x1="220.417" y1="110.717" x2="306.347" y2="204.317" gradientUnits="userSpaceOnUse">
<stop stop-color="#0186F5"></stop>
<stop offset="0.1319" stop-color="#0186F5"></stop>
<stop offset="0.3146" stop-color="#35C2B0"></stop>
<stop offset="0.667" stop-color="#AAD825"></stop>
<stop offset="1" stop-color="#FED700"></stop>
</linearGradient>
<linearGradient id="paint1_linear_39566_19721" x1="150.879" y1="196.648" x2="151.583" y2="138.064" gradientUnits="userSpaceOnUse">
<stop stop-color="#FF7F00"></stop>
<stop offset="1" stop-color="#FE0201"></stop>
</linearGradient>
<linearGradient id="paint2_linear_39566_19721" x1="237.694" y1="74.4875" x2="332.86" y2="76.3193" gradientUnits="userSpaceOnUse">
<stop stop-color="#0186F5"></stop>
<stop offset="0.1983" stop-color="#0186F5"></stop>
<stop offset="1" stop-color="#3156FD"></stop>
</linearGradient>
<linearGradient id="paint3_linear_39566_19721" x1="347.414" y1="122.994" x2="356.145" y2="105.716" gradientUnits="userSpaceOnUse">
<stop stop-color="#8434D5"></stop>
<stop offset="0.8542" stop-color="#3156FD"></stop>
<stop offset="1" stop-color="#3156FD"></stop>
</linearGradient>
<linearGradient id="paint4_linear_39566_19721" x1="328.117" y1="127.139" x2="255.051" y2="130.61" gradientUnits="userSpaceOnUse">
<stop stop-color="#8434D5"></stop>
<stop offset="1" stop-color="#FE0201"></stop>
</linearGradient>
</defs>
</svg>